<?xml version="1.0" encoding="UTF-8"?>
<!DOCTYPE svg PUBLIC "-//W3C//DTD SVG 1.1//EN" "http://www.w3.org/Graphics/SVG/1.1/DTD/svg11.dtd">
<svg version="1.2" width="232.5mm" height="70mm" viewBox="0 0 23250 7000" preserveAspectRatio="xMidYMid" fill-rule="evenodd" stroke-width="28.222" stroke-linejoin="round" xmlns="http://www.w3.org/2000/svg" xmlns:ooo="http://xml.openoffice.org/svg/export" xmlns:xlink="http://www.w3.org/1999/xlink" xmlns:presentation="http://sun.com/xmlns/staroffice/presentation" xmlns:smil="http://www.w3.org/2001/SMIL20/" xmlns:anim="urn:oasis:names:tc:opendocument:xmlns:animation:1.0" xml:space="preserve">
 <defs class="ClipPathGroup">
  <clipPath id="presentation_clip_path" clipPathUnits="userSpaceOnUse">
   <rect x="0" y="0" width="23250" height="7000"/>
  </clipPath>
  <clipPath id="presentation_clip_path_shrink" clipPathUnits="userSpaceOnUse">
   <rect x="23" y="7" width="23204" height="6986"/>
  </clipPath>
 </defs>
 <defs class="TextShapeIndex">
  <g ooo:slide="id1" ooo:id-list="id3 id4 id5 id6 id7 id8 id9 id10 id11"/>
 </defs>
 <defs class="EmbeddedBulletChars">
  <g id="bullet-char-template-57356" transform="scale(0.00048828125,-0.00048828125)">
   <path d="M 580,1141 L 1163,571 580,0 -4,571 580,1141 Z"/>
  </g>
  <g id="bullet-char-template-57354" transform="scale(0.00048828125,-0.00048828125)">
   <path d="M 8,1128 L 1137,1128 1137,0 8,0 8,1128 Z"/>
  </g>
  <g id="bullet-char-template-10146" transform="scale(0.00048828125,-0.00048828125)">
   <path d="M 174,0 L 602,739 174,1481 1456,739 174,0 Z M 1358,739 L 309,1346 659,739 1358,739 Z"/>
  </g>
  <g id="bullet-char-template-10132" transform="scale(0.00048828125,-0.00048828125)">
   <path d="M 2015,739 L 1276,0 717,0 1260,543 174,543 174,936 1260,936 717,1481 1274,1481 2015,739 Z"/>
  </g>
  <g id="bullet-char-template-10007" transform="scale(0.00048828125,-0.00048828125)">
   <path d="M 0,-2 C -7,14 -16,27 -25,37 L 356,567 C 262,823 215,952 215,954 215,979 228,992 255,992 264,992 276,990 289,987 310,991 331,999 354,1012 L 381,999 492,748 772,1049 836,1024 860,1049 C 881,1039 901,1025 922,1006 886,937 835,863 770,784 769,783 710,716 594,584 L 774,223 C 774,196 753,168 711,139 L 727,119 C 717,90 699,76 672,76 641,76 570,178 457,381 L 164,-76 C 142,-110 111,-127 72,-127 30,-127 9,-110 8,-76 1,-67 -2,-52 -2,-32 -2,-23 -1,-13 0,-2 Z"/>
  </g>
  <g id="bullet-char-template-10004" transform="scale(0.00048828125,-0.00048828125)">
   <path d="M 285,-33 C 182,-33 111,30 74,156 52,228 41,333 41,471 41,549 55,616 82,672 116,743 169,778 240,778 293,778 328,747 346,684 L 369,508 C 377,444 397,411 428,410 L 1163,1116 C 1174,1127 1196,1133 1229,1133 1271,1133 1292,1118 1292,1087 L 1292,965 C 1292,929 1282,901 1262,881 L 442,47 C 390,-6 338,-33 285,-33 Z"/>
  </g>
  <g id="bullet-char-template-9679" transform="scale(0.00048828125,-0.00048828125)">
   <path d="M 813,0 C 632,0 489,54 383,161 276,268 223,411 223,592 223,773 276,916 383,1023 489,1130 632,1184 813,1184 992,1184 1136,1130 1245,1023 1353,916 1407,772 1407,592 1407,412 1353,268 1245,161 1136,54 992,0 813,0 Z"/>
  </g>
  <g id="bullet-char-template-8226" transform="scale(0.00048828125,-0.00048828125)">
   <path d="M 346,457 C 273,457 209,483 155,535 101,586 74,649 74,723 74,796 101,859 155,911 209,963 273,989 346,989 419,989 480,963 531,910 582,859 608,796 608,723 608,648 583,586 532,535 482,483 420,457 346,457 Z"/>
  </g>
  <g id="bullet-char-template-8211" transform="scale(0.00048828125,-0.00048828125)">
   <path d="M -4,459 L 1135,459 1135,606 -4,606 -4,459 Z"/>
  </g>
  <g id="bullet-char-template-61548" transform="scale(0.00048828125,-0.00048828125)">
   <path d="M 173,740 C 173,903 231,1043 346,1159 462,1274 601,1332 765,1332 928,1332 1067,1274 1183,1159 1299,1043 1357,903 1357,740 1357,577 1299,437 1183,322 1067,206 928,148 765,148 601,148 462,206 346,322 231,437 173,577 173,740 Z"/>
  </g>
 </defs>
 <g>
  <g id="id2" class="Master_Slide">
   <g id="bg-id2" class="Background"/>
   <g id="bo-id2" class="BackgroundObjects"/>
  </g>
 </g>
 <g class="SlideGroup">
  <g>
   <g id="container-id1">
    <g id="id1" class="Slide" clip-path="url(#presentation_clip_path)">
     <g class="Page">
      <g class="com.sun.star.drawing.ClosedBezierShape">
       <g id="id3">
        <rect class="BoundingBox" stroke="none" fill="none" x="1562" y="74" width="5242" height="4889"/>
        <path fill="rgb(73,90,37)" stroke="none" d="M 5869,4421 C 5910,4473 5964,4510 6025,4535 5804,4654 5452,4684 5199,4656 5230,4729 5252,4761 5284,4812 5066,4797 4817,4774 4612,4694 4613,4712 4613,4776 4619,4815 4406,4732 4172,4600 4007,4449 3994,4513 3986,4572 3975,4623 3723,4415 3378,4012 3269,3695 2988,4051 2780,4456 2742,4946 2654,4970 2561,4959 2469,4958 2488,4769 2596,4606 2651,4420 2798,4124 2977,3848 3249,3642 3000,3652 2349,3321 2073,3172 2139,3164 2182,3161 2278,3127 2097,2990 1863,2795 1762,2591 1804,2596 1826,2600 1888,2616 1725,2390 1561,2030 1563,1716 1587,1749 1615,1776 1645,1795 1640,1669 1587,1479 1673,1357 1755,1399 1847,1491 1935,1565 1942,1531 1948,1511 1957,1480 2007,1527 2161,1654 2216,1695 L 2245,1615 C 2321,1673 2568,1895 2594,1934 2455,1649 2285,1420 2290,1071 2330,1117 2375,1146 2419,1170 2401,968 2437,737 2524,547 L 2532,539 C 2565,584 2586,645 2641,673 2645,584 2765,148 2788,74 2873,142 2947,227 3026,306 3064,278 3079,234 3096,174 3214,304 3329,449 3414,614 3457,590 3475,532 3491,515 3601,643 3607,803 3642,949 3696,931 3765,855 3793,810 3853,920 3920,1269 3922,1358 4083,1130 4275,926 4458,717 4453,763 4438,792 4433,845 4512,746 4877,453 4969,404 4949,464 4929,505 4927,574 5101,453 5296,412 5485,354 5455,409 5435,456 5424,504 5655,416 5890,360 6120,262 6161,357 6031,786 6020,927 6057,937 6094,930 6130,930 6127,1141 6000,1321 5936,1517 5974,1531 5988,1527 6019,1532 5932,1734 5780,1889 5659,2070 5708,2076 5762,2075 5810,2078 5748,2160 5548,2392 5468,2456 5594,2400 5933,2335 6099,2317 6076,2358 6060,2384 6046,2444 6148,2441 6245,2397 6349,2386 6325,2433 6315,2456 6312,2513 6467,2481 6650,2425 6802,2367 6718,2608 6599,2818 6471,3026 6535,3038 6594,3026 6655,3026 6595,3130 6225,3369 6161,3385 6194,3397 6255,3414 6303,3433 6028,3550 5756,3683 5469,3736 5560,3762 6001,3892 6065,3924 6038,3951 5985,3968 5952,4024 6069,4036 6341,4109 6443,4186 6261,4302 6065,4396 5869,4421 Z"/>
       </g>
      </g>
      <g class="Group">
       <g class="com.sun.star.drawing.ClosedBezierShape">
        <g id="id4">
         <rect class="BoundingBox" stroke="none" fill="none" x="50" y="2179" width="12300" height="3657"/>
         <path fill="rgb(101,115,39)" stroke="none" d="M 6747,3626 L 7444,3626 7444,4773 C 7444,4893 7458,5097 7573,5171 7609,5194 7651,5202 7694,5202 7737,5202 7779,5194 7816,5171 7930,5097 7944,4893 7944,4773 L 7944,3626 8641,3626 8641,4866 C 8641,5491 8320,5818 7694,5818 7068,5818 6747,5491 6747,4866 L 6747,4242 6430,4242 6430,5754 5733,5754 5733,4242 5541,4242 5541,3626 5733,3626 5733,2953 6430,2953 6430,3626 6747,3626 Z M 6747,3626 L 6747,3626 Z M 2343,2686 L 2343,3634 2221,3483 C 2063,3289 1864,3185 1612,3185 1361,3185 1164,3287 1012,3486 859,3686 795,3918 795,4169 795,4416 862,4641 1016,4835 1168,5027 1362,5129 1608,5129 1859,5129 2059,5018 2222,4829 L 2343,4688 2343,5627 2304,5645 C 2085,5751 1838,5835 1592,5835 1150,5835 783,5661 487,5334 192,5008 50,4620 50,4181 50,3734 184,3332 478,2993 775,2652 1152,2479 1604,2479 1854,2479 2089,2544 2308,2666 L 2343,2686 Z M 2343,2686 L 2343,2686 Z M 2564,3626 L 3262,3626 3262,4773 C 3262,4893 3275,5097 3390,5171 3427,5194 3469,5202 3512,5202 3554,5202 3597,5194 3633,5171 3748,5097 3762,4893 3762,4773 L 3762,3626 4459,3626 4459,4866 C 4459,5491 4138,5818 3512,5818 2885,5818 2564,5491 2564,4866 L 2564,3626 Z M 2564,3626 L 2564,3626 Z M 9591,3715 C 9705,3614 9846,3561 10014,3561 10103,3561 10190,3582 10273,3614 L 10323,3634 10234,4330 10139,4261 C 10082,4220 10019,4201 9949,4201 9814,4201 9711,4248 9652,4372 9599,4489 9591,4662 9591,4789 L 9591,5754 8894,5754 8894,3626 9591,3626 9591,3715 Z M 9591,3715 L 9591,3715 Z M 11660,5665 C 11530,5771 11370,5818 11190,5818 10892,5818 10650,5696 10469,5459 10294,5231 10219,4965 10219,4679 10219,4398 10295,4138 10469,3916 10650,3684 10888,3561 11182,3561 11365,3561 11525,3613 11660,3718 L 11660,3626 12349,3626 12349,5754 11660,5754 11660,5665 Z M 11660,5665 L 11660,5665 Z M 5408,2179 L 5408,5754 4711,5754 4711,2179 5408,2179 Z M 5408,2179 L 5408,2179 Z M 11606,5027 C 11681,4926 11716,4813 11716,4688 11716,4564 11683,4451 11607,4353 11533,4258 11440,4201 11318,4201 11197,4201 11106,4257 11034,4353 10958,4451 10924,4563 10924,4688 10924,4813 10958,4927 11034,5027 11106,5123 11197,5178 11318,5178 11440,5178 11532,5121 11606,5027 Z"/>
        </g>
       </g>
      </g>
      <g class="com.sun.star.drawing.ClosedBezierShape">
       <g id="id5">
        <rect class="BoundingBox" stroke="none" fill="none" x="119" y="2248" width="12162" height="3519"/>
        <path fill="rgb(255,255,255)" stroke="none" d="M 2274,2726 L 2274,3439 C 2099,3223 1878,3115 1612,3115 1343,3115 1125,3224 957,3443 803,3646 726,3888 726,4169 726,4442 804,4678 962,4878 1132,5091 1347,5198 1608,5198 1866,5198 2088,5090 2274,4874 L 2274,5583 C 2022,5704 1794,5765 1592,5765 1177,5765 826,5606 538,5287 259,4979 119,4610 119,4181 119,3735 256,3354 530,3038 815,2711 1173,2548 1604,2548 1838,2548 2062,2607 2274,2726 Z M 2274,2726 L 2274,2726 Z M 2634,3695 L 3192,3695 3192,4772 C 3192,5105 3299,5271 3512,5271 3725,5271 3831,5105 3831,4772 L 3831,3695 4390,3695 4390,4866 C 4390,5455 4097,5749 3512,5749 2926,5749 2634,5455 2634,4866 L 2634,3695 Z M 2634,3695 L 2634,3695 Z M 6361,4173 L 6361,5684 5802,5684 5802,4173 5610,4173 5610,3695 5802,3695 5802,3022 6361,3022 6361,3695 6704,3695 6704,4173 6361,4173 Z M 6361,4173 L 6361,4173 Z M 6816,3695 L 7375,3695 7375,4772 C 7375,5105 7481,5271 7694,5271 7907,5271 8014,5105 8014,4772 L 8014,3695 8572,3695 8572,4866 C 8572,5455 8280,5749 7694,5749 7109,5749 6816,5455 6816,4866 L 6816,3695 Z M 6816,3695 L 6816,3695 Z M 9521,3695 L 9521,3901 9521,3901 C 9640,3720 9804,3630 10014,3630 10086,3630 10165,3646 10248,3678 L 10180,4205 C 10113,4157 10036,4132 9949,4132 9775,4132 9656,4202 9589,4343 9544,4443 9521,4592 9521,4789 L 9521,5684 8963,5684 8963,3695 9521,3695 Z M 9521,3695 L 9521,3695 Z M 12280,3695 L 12280,5684 11729,5684 11729,5502 11721,5502 C 11596,5667 11419,5749 11190,5749 10916,5749 10694,5638 10524,5417 10367,5212 10288,4966 10288,4679 10288,4398 10367,4158 10524,3958 10694,3739 10914,3630 11182,3630 11406,3630 11588,3713 11729,3881 L 11729,3695 12280,3695 Z M 12280,3695 L 12280,3695 Z M 11318,5247 C 11454,5247 11568,5187 11661,5068 11744,4958 11785,4831 11785,4687 11785,4544 11744,4419 11661,4311 11568,4192 11454,4132 11318,4132 11182,4132 11069,4192 10979,4311 10896,4419 10855,4544 10855,4687 10855,4831 10896,4958 10979,5068 11069,5187 11182,5247 11318,5247 Z M 11318,5247 L 11318,5247 Z M 5339,2248 L 5339,5684 4780,5684 4780,2248 5339,2248 Z"/>
       </g>
      </g>
      <g class="Group">
       <g class="com.sun.star.drawing.PolyPolygonShape">
        <g id="id6">
         <rect class="BoundingBox" stroke="none" fill="none" x="12426" y="2629" width="2664" height="3138"/>
         <path fill="rgb(73,90,37)" stroke="none" d="M 13057,2629 L 13780,4688 13787,4688 14458,2629 15089,2629 13919,5765 13576,5765 12427,2629 13057,2629 Z"/>
        </g>
       </g>
       <g class="com.sun.star.drawing.ClosedBezierShape">
        <g id="id7">
         <rect class="BoundingBox" stroke="none" fill="none" x="15188" y="3743" width="1918" height="2020"/>
         <path fill="rgb(73,90,37)" stroke="none" d="M 17104,4810 L 15627,4810 C 15637,4985 15689,5122 15781,5220 15873,5318 15996,5368 16150,5368 16286,5368 16400,5339 16490,5281 16581,5222 16660,5129 16728,5000 L 17085,5201 C 16981,5390 16852,5530 16699,5623 16545,5715 16366,5761 16159,5761 15863,5761 15627,5669 15452,5487 15276,5303 15188,5058 15188,4752 15188,4458 15279,4217 15460,4027 15641,3838 15874,3743 16159,3743 16456,3743 16688,3830 16855,4002 17021,4176 17104,4417 17104,4729 L 17104,4810 Z M 17104,4810 L 17104,4810 Z M 16666,4521 C 16649,4386 16598,4284 16513,4213 16429,4142 16314,4107 16167,4107 16028,4107 15916,4142 15832,4210 15747,4279 15688,4382 15654,4521 L 16666,4521 Z"/>
        </g>
       </g>
       <g class="com.sun.star.drawing.ClosedBezierShape">
        <g id="id8">
         <rect class="BoundingBox" stroke="none" fill="none" x="17544" y="3743" width="1230" height="1943"/>
         <path fill="rgb(73,90,37)" stroke="none" d="M 17967,4107 C 18012,3984 18073,3892 18148,3832 18222,3773 18315,3743 18426,3743 18485,3743 18544,3751 18602,3765 18660,3780 18716,3801 18772,3828 L 18620,4192 C 18584,4166 18545,4146 18502,4134 18460,4121 18413,4115 18361,4115 18221,4115 18120,4172 18059,4286 17998,4401 17967,4592 17967,4861 L 17967,5684 17544,5684 17544,3805 17967,3805 17967,4107 Z"/>
        </g>
       </g>
       <g class="com.sun.star.drawing.ClosedBezierShape">
        <g id="id9">
         <rect class="BoundingBox" stroke="none" fill="none" x="18877" y="2617" width="1876" height="3146"/>
         <path fill="rgb(73,90,37)" stroke="none" d="M 20341,4740 C 20341,4546 20296,4396 20207,4287 20118,4179 19993,4125 19834,4125 19674,4125 19548,4181 19456,4292 19365,4404 19320,4559 19320,4756 19320,4956 19363,5109 19452,5218 19540,5326 19665,5380 19826,5380 19979,5380 20103,5322 20198,5205 20293,5088 20341,4933 20341,4740 Z M 20341,4740 L 20341,4740 Z M 20329,2618 L 20752,2618 20752,5684 20329,5684 20329,5441 C 20254,5550 20165,5630 20065,5682 19964,5735 19849,5761 19719,5761 19458,5761 19252,5671 19102,5489 18952,5308 18877,5060 18877,4744 18877,4445 18954,4203 19107,4020 19260,3835 19461,3744 19707,3744 19858,3744 19987,3775 20094,3839 20201,3904 20279,3995 20329,4115 L 20329,2618 Z"/>
        </g>
       </g>
       <g class="com.sun.star.drawing.ClosedBezierShape">
        <g id="id10">
         <rect class="BoundingBox" stroke="none" fill="none" x="21199" y="3743" width="1918" height="2020"/>
         <path fill="rgb(73,90,37)" stroke="none" d="M 23116,4810 L 21638,4810 C 21649,4985 21700,5122 21792,5220 21884,5318 22007,5368 22161,5368 22297,5368 22411,5339 22502,5281 22593,5222 22672,5129 22740,5000 L 23096,5201 C 22993,5390 22863,5530 22710,5623 22557,5715 22377,5761 22170,5761 21874,5761 21638,5669 21463,5487 21287,5303 21200,5058 21200,4752 21200,4458 21290,4217 21472,4027 21653,3838 21885,3743 22170,3743 22468,3743 22700,3830 22866,4002 23032,4176 23116,4417 23116,4729 L 23116,4810 Z M 23116,4810 L 23116,4810 Z M 22677,4521 C 22661,4386 22609,4284 22525,4213 22440,4142 22325,4107 22178,4107 22039,4107 21927,4142 21843,4210 21758,4279 21699,4382 21665,4521 L 22677,4521 Z"/>
        </g>
       </g>
      </g>
      <g class="com.sun.star.drawing.ClosedBezierShape">
       <g id="id11">
        <rect class="BoundingBox" stroke="none" fill="none" x="7148" y="5987" width="16003" height="1014"/>
        <path fill="rgb(27,25,24)" stroke="none" d="M 7898,6796 L 7780,6796 7699,6597 7341,6597 7260,6796 7148,6796 7449,6078 7596,6078 7898,6796 Z M 7898,6796 L 7898,6796 Z M 7664,6514 L 7520,6162 7375,6514 7664,6514 Z M 7664,6514 L 7664,6514 Z M 8935,6536 L 8477,6536 C 8477,6569 8483,6598 8494,6623 8506,6647 8522,6667 8542,6683 8561,6698 8584,6710 8610,6718 8637,6725 8666,6729 8698,6729 8740,6729 8783,6722 8826,6707 8868,6693 8899,6678 8917,6664 L 8923,6664 8923,6763 C 8887,6776 8851,6786 8815,6795 8778,6804 8740,6808 8699,6808 8596,6808 8516,6784 8458,6736 8400,6688 8371,6619 8371,6530 8371,6442 8399,6372 8455,6320 8510,6269 8583,6243 8673,6243 8757,6243 8822,6264 8867,6306 8912,6349 8935,6409 8935,6487 L 8935,6536 Z M 8935,6536 L 8935,6536 Z M 8834,6467 C 8833,6420 8819,6383 8792,6357 8765,6331 8723,6318 8668,6318 8612,6318 8567,6332 8534,6361 8501,6389 8482,6425 8477,6467 L 8834,6467 Z M 8834,6467 L 8834,6467 Z M 9630,6796 L 9498,6796 9323,6590 9146,6796 9025,6796 9266,6528 9027,6257 9159,6257 9333,6461 9508,6257 9630,6257 9387,6523 9630,6796 Z M 9630,6796 L 9630,6796 Z M 10216,6763 C 10181,6777 10148,6788 10116,6796 10085,6804 10052,6808 10017,6808 9972,6808 9931,6802 9893,6791 9856,6780 9824,6762 9797,6739 9770,6716 9749,6687 9735,6651 9720,6616 9712,6575 9712,6528 9712,6439 9740,6370 9796,6320 9852,6270 9925,6245 10017,6245 10052,6245 10087,6249 10122,6258 10156,6266 10187,6277 10216,6289 L 10216,6390 10210,6390 C 10178,6369 10145,6352 10111,6341 10077,6330 10045,6324 10012,6324 9953,6324 9906,6341 9872,6375 9838,6410 9821,6461 9821,6528 9821,6592 9837,6642 9871,6677 9904,6712 9951,6729 10012,6729 10034,6729 10055,6727 10077,6722 10099,6717 10118,6711 10136,6704 10151,6697 10165,6690 10178,6682 10192,6675 10203,6668 10210,6663 L 10216,6663 10216,6763 Z M 10216,6763 L 10216,6763 Z M 10869,6536 L 10412,6536 C 10412,6569 10417,6598 10429,6623 10440,6647 10456,6667 10476,6683 10495,6698 10518,6710 10545,6718 10571,6725 10600,6729 10632,6729 10674,6729 10717,6722 10760,6707 10803,6693 10833,6678 10851,6664 L 10857,6664 10857,6763 C 10822,6776 10786,6786 10749,6795 10712,6804 10674,6808 10634,6808 10531,6808 10450,6784 10392,6736 10334,6688 10306,6619 10306,6530 10306,6442 10333,6372 10389,6320 10444,6269 10517,6243 10607,6243 10691,6243 10756,6264 10801,6306 10846,6349 10869,6409 10869,6487 L 10869,6536 Z M 10869,6536 L 10869,6536 Z M 10768,6467 C 10768,6420 10754,6383 10726,6357 10699,6331 10658,6318 10602,6318 10546,6318 10501,6332 10468,6361 10435,6389 10416,6425 10412,6467 L 10768,6467 Z M 10768,6467 L 10768,6467 Z M 11132,6796 L 11027,6796 11027,6045 11132,6045 11132,6796 Z M 11132,6796 L 11132,6796 Z M 11860,6536 L 11402,6536 C 11402,6569 11408,6598 11420,6623 11431,6647 11447,6667 11467,6683 11486,6698 11509,6710 11535,6718 11562,6725 11591,6729 11623,6729 11665,6729 11708,6722 11751,6707 11793,6693 11824,6678 11842,6664 L 11848,6664 11848,6763 C 11812,6776 11776,6786 11740,6795 11703,6804 11664,6808 11624,6808 11521,6808 11441,6784 11383,6736 11325,6688 11296,6619 11296,6530 11296,6442 11324,6372 11379,6320 11435,6269 11508,6243 11598,6243 11682,6243 11747,6264 11792,6306 11837,6349 11860,6409 11860,6487 L 11860,6536 Z M 11860,6536 L 11860,6536 Z M 11759,6467 C 11758,6420 11744,6383 11717,6357 11690,6331 11648,6318 11593,6318 11537,6318 11492,6332 11459,6361 11426,6389 11407,6425 11402,6467 L 11759,6467 Z M 11759,6467 L 11759,6467 Z M 11784,6171 L 11695,6171 11593,6047 11490,6171 11404,6171 11531,5988 11657,5988 11784,6171 Z M 11784,6171 L 11784,6171 Z M 12538,6796 L 12433,6796 12433,6489 C 12433,6465 12432,6441 12429,6420 12425,6398 12419,6381 12410,6369 12401,6355 12387,6345 12370,6339 12352,6332 12330,6329 12302,6329 12274,6329 12244,6335 12212,6347 12181,6359 12151,6375 12123,6394 L 12123,6796 12018,6796 12018,6257 12123,6257 12123,6318 C 12155,6294 12189,6276 12224,6262 12259,6249 12295,6243 12332,6243 12399,6243 12450,6260 12485,6295 12521,6330 12538,6381 12538,6447 L 12538,6796 Z M 12538,6796 L 12538,6796 Z M 13199,6763 C 13164,6777 13131,6788 13099,6796 13068,6804 13035,6808 13000,6808 12955,6808 12914,6802 12876,6791 12839,6780 12807,6762 12780,6739 12753,6716 12732,6687 12717,6651 12703,6616 12695,6575 12695,6528 12695,6439 12723,6370 12779,6320 12835,6270 12908,6245 13000,6245 13035,6245 13070,6249 13104,6258 13139,6266 13170,6277 13199,6289 L 13199,6390 13193,6390 C 13161,6369 13128,6352 13094,6341 13060,6330 13027,6324 12995,6324 12936,6324 12889,6341 12855,6375 12821,6410 12803,6461 12803,6528 12803,6592 12820,6642 12854,6677 12887,6712 12934,6729 12995,6729 13016,6729 13038,6727 13060,6722 13082,6717 13101,6711 13118,6704 13134,6697 13148,6690 13161,6682 13175,6675 13185,6668 13193,6663 L 13199,6663 13199,6763 Z M 13199,6763 L 13199,6763 Z M 13443,6167 L 13325,6167 13325,6073 13443,6073 13443,6167 Z M 13443,6167 L 13443,6167 Z M 13436,6796 L 13332,6796 13332,6257 13436,6257 13436,6796 Z M 13436,6796 L 13436,6796 Z M 14128,6796 L 14023,6796 14023,6739 C 14014,6744 14002,6752 13986,6762 13970,6771 13955,6779 13940,6785 13923,6793 13903,6799 13880,6804 13858,6809 13831,6811 13801,6811 13745,6811 13698,6795 13659,6763 13620,6731 13601,6690 13601,6640 13601,6599 13611,6566 13631,6540 13651,6515 13680,6495 13717,6480 13755,6466 13800,6456 13853,6451 13906,6446 13963,6442 14023,6439 L 14023,6425 C 14023,6405 14019,6387 14011,6374 14002,6360 13991,6350 13975,6342 13960,6334 13943,6329 13922,6327 13901,6324 13880,6323 13857,6323 13830,6323 13799,6326 13765,6332 13732,6339 13697,6348 13661,6360 L 13656,6360 13656,6268 C 13676,6263 13706,6258 13744,6253 13783,6247 13820,6244 13858,6244 13902,6244 13940,6247 13972,6253 14005,6259 14033,6270 14056,6285 14080,6300 14098,6319 14110,6343 14122,6366 14128,6395 14128,6430 L 14128,6796 Z M 14128,6796 L 14128,6796 Z M 14023,6664 L 14023,6513 C 13992,6514 13954,6517 13911,6520 13868,6523 13834,6528 13809,6534 13779,6542 13755,6553 13737,6569 13718,6584 13709,6606 13709,6633 13709,6665 13720,6688 13741,6704 13763,6719 13795,6727 13839,6727 13876,6727 13909,6721 13939,6709 13969,6696 13997,6681 14023,6664 Z M 14023,6664 L 14023,6664 Z M 15249,6536 L 14791,6536 C 14791,6569 14797,6598 14808,6623 14820,6647 14835,6667 14856,6683 14875,6698 14898,6710 14924,6718 14951,6725 14980,6729 15012,6729 15054,6729 15096,6722 15139,6707 15182,6693 15213,6678 15231,6664 L 15236,6664 15236,6763 C 15201,6776 15165,6786 15129,6795 15092,6804 15053,6808 15013,6808 14910,6808 14830,6784 14772,6736 14714,6688 14685,6619 14685,6530 14685,6442 14713,6372 14768,6320 14824,6269 14897,6243 14987,6243 15071,6243 15135,6264 15181,6306 15226,6349 15249,6409 15249,6487 L 15249,6536 Z M 15249,6536 L 15249,6536 Z M 15147,6467 C 15147,6420 15133,6383 15106,6357 15079,6331 15037,6318 14982,6318 14925,6318 14881,6332 14848,6361 14814,6389 14796,6425 14791,6467 L 15147,6467 Z M 15147,6467 L 15147,6467 Z M 16313,6796 L 16209,6796 16209,6489 C 16209,6466 16207,6444 16205,6422 16202,6401 16197,6384 16190,6371 16181,6357 16169,6346 16153,6339 16137,6332 16114,6329 16084,6329 16055,6329 16026,6335 15996,6348 15967,6361 15938,6377 15909,6396 15910,6404 15911,6412 15911,6422 15912,6432 15913,6442 15913,6451 L 15913,6796 15808,6796 15808,6489 C 15808,6466 15807,6443 15804,6422 15802,6400 15797,6383 15789,6370 15780,6356 15768,6346 15752,6339 15736,6332 15713,6329 15683,6329 15655,6329 15626,6335 15597,6347 15569,6359 15540,6375 15512,6394 L 15512,6796 15407,6796 15407,6257 15512,6257 15512,6317 C 15544,6294 15577,6276 15609,6262 15642,6249 15676,6243 15713,6243 15755,6243 15791,6250 15820,6266 15850,6281 15872,6303 15886,6330 15929,6299 15967,6277 16002,6263 16037,6250 16074,6243 16114,6243 16182,6243 16232,6261 16265,6296 16297,6332 16313,6382 16313,6447 L 16313,6796 Z M 16313,6796 L 16313,6796 Z M 17463,6521 C 17463,6564 17455,6605 17441,6640 17426,6677 17406,6707 17380,6733 17355,6756 17326,6775 17293,6788 17260,6801 17224,6807 17187,6807 17155,6807 17126,6804 17099,6798 17073,6792 17047,6783 17019,6770 L 17019,6995 16915,6995 16915,6257 17019,6257 17019,6314 C 17047,6294 17079,6277 17113,6263 17148,6250 17185,6243 17225,6243 17300,6243 17358,6267 17400,6316 17442,6365 17463,6433 17463,6521 Z M 17463,6521 L 17463,6521 Z M 17354,6523 C 17354,6458 17342,6409 17316,6377 17290,6345 17251,6329 17198,6329 17168,6329 17137,6334 17107,6346 17076,6357 17047,6371 17019,6390 L 17019,6695 C 17049,6707 17075,6715 17096,6719 17117,6723 17142,6725 17169,6725 17227,6725 17273,6708 17305,6674 17338,6640 17354,6590 17354,6523 Z M 17354,6523 L 17354,6523 Z M 18108,6796 L 18003,6796 18003,6739 C 17994,6744 17982,6752 17966,6762 17950,6771 17935,6779 17920,6785 17903,6793 17883,6799 17860,6804 17838,6809 17811,6811 17781,6811 17725,6811 17678,6795 17639,6763 17600,6731 17581,6690 17581,6640 17581,6599 17591,6566 17611,6540 17631,6515 17660,6495 17697,6480 17735,6466 17780,6456 17833,6451 17886,6446 17943,6442 18003,6439 L 18003,6425 C 18003,6405 17999,6387 17991,6374 17982,6360 17971,6350 17955,6342 17940,6334 17923,6329 17902,6327 17881,6324 17860,6323 17837,6323 17810,6323 17779,6326 17745,6332 17712,6339 17677,6348 17641,6360 L 17636,6360 17636,6268 C 17656,6263 17686,6258 17724,6253 17763,6247 17801,6244 17838,6244 17882,6244 17920,6247 17952,6253 17985,6259 18013,6270 18036,6285 18060,6300 18078,6319 18090,6343 18102,6366 18108,6395 18108,6430 L 18108,6796 Z M 18108,6796 L 18108,6796 Z M 18003,6664 L 18003,6513 C 17972,6514 17934,6517 17891,6520 17848,6523 17814,6528 17789,6534 17759,6542 17735,6553 17717,6569 17698,6584 17689,6606 17689,6633 17689,6665 17700,6688 17721,6704 17743,6719 17775,6727 17819,6727 17856,6727 17889,6721 17919,6709 17949,6696 17977,6681 18003,6664 Z M 18003,6664 L 18003,6664 Z M 18420,6167 L 18301,6167 18301,6073 18420,6073 18420,6167 Z M 18420,6167 L 18420,6167 Z M 18413,6796 L 18308,6796 18308,6257 18413,6257 18413,6796 Z M 18413,6796 L 18413,6796 Z M 19065,6640 C 19065,6689 19041,6730 18994,6761 18948,6792 18884,6808 18802,6808 18756,6808 18714,6803 18676,6794 18638,6784 18606,6774 18580,6763 L 18580,6661 18585,6661 C 18618,6683 18654,6700 18695,6713 18735,6726 18774,6732 18810,6732 18856,6732 18892,6726 18918,6713 18944,6700 18956,6679 18956,6652 18956,6630 18950,6614 18935,6604 18921,6592 18894,6583 18855,6576 18840,6573 18820,6569 18797,6565 18773,6561 18751,6557 18731,6553 18677,6540 18639,6522 18616,6497 18593,6473 18582,6443 18582,6408 18582,6386 18587,6365 18598,6345 18608,6326 18624,6308 18646,6293 18667,6278 18693,6266 18725,6257 18757,6248 18793,6244 18833,6244 18870,6244 18908,6248 18946,6256 18984,6263 19016,6273 19041,6284 L 19041,6381 19035,6381 C 19008,6364 18976,6350 18938,6338 18900,6326 18863,6320 18826,6320 18788,6320 18756,6326 18729,6339 18703,6352 18690,6371 18690,6396 18690,6418 18698,6435 18714,6446 18729,6457 18755,6466 18789,6474 18808,6478 18830,6481 18854,6485 18877,6489 18897,6493 18913,6496 18962,6506 18999,6522 19025,6545 19052,6569 19065,6601 19065,6640 Z M 19065,6640 L 19065,6640 Z M 19698,6796 L 19593,6796 19593,6739 C 19584,6744 19571,6752 19556,6762 19540,6771 19525,6779 19510,6785 19492,6793 19473,6799 19450,6804 19428,6809 19401,6811 19371,6811 19315,6811 19268,6795 19229,6763 19190,6731 19171,6690 19171,6640 19171,6599 19181,6566 19201,6540 19221,6515 19250,6495 19287,6480 19325,6466 19370,6456 19423,6451 19476,6446 19532,6442 19593,6439 L 19593,6425 C 19593,6405 19589,6387 19580,6374 19572,6360 19560,6350 19545,6342 19530,6334 19512,6329 19492,6327 19471,6324 19449,6323 19427,6323 19399,6323 19369,6326 19335,6332 19301,6339 19267,6348 19231,6360 L 19225,6360 19225,6268 C 19245,6263 19275,6258 19314,6253 19352,6247 19390,6244 19428,6244 19471,6244 19509,6247 19542,6253 19574,6259 19602,6270 19626,6285 19649,6300 19667,6319 19679,6343 19692,6366 19698,6395 19698,6430 L 19698,6796 Z M 19698,6796 L 19698,6796 Z M 19593,6664 L 19593,6513 C 19561,6514 19524,6517 19481,6520 19438,6523 19404,6528 19379,6534 19349,6542 19325,6553 19306,6569 19288,6584 19279,6606 19279,6633 19279,6665 19289,6688 19311,6704 19332,6719 19365,6727 19409,6727 19445,6727 19479,6721 19509,6709 19539,6696 19567,6681 19593,6664 Z M 19593,6664 L 19593,6664 Z M 20402,6735 C 20402,6826 20378,6893 20330,6936 20282,6978 20209,7000 20109,7000 20076,7000 20044,6998 20012,6994 19981,6990 19950,6984 19919,6977 L 19919,6884 19925,6884 C 19942,6890 19969,6897 20006,6905 20044,6914 20081,6918 20118,6918 20154,6918 20183,6914 20207,6907 20230,6899 20248,6889 20261,6876 20274,6864 20284,6849 20289,6831 20295,6814 20297,6794 20297,6772 L 20297,6723 C 20266,6745 20236,6761 20207,6772 20178,6783 20141,6788 20097,6788 20023,6788 19964,6765 19920,6719 19876,6672 19855,6607 19855,6522 19855,6476 19862,6436 19877,6402 19892,6368 19913,6340 19939,6315 19963,6292 19992,6274 20027,6262 20061,6249 20096,6243 20130,6243 20166,6243 20196,6246 20220,6252 20245,6258 20270,6268 20297,6281 L 20304,6257 20402,6257 20402,6735 Z M 20402,6735 L 20402,6735 Z M 20297,6649 L 20297,6355 C 20270,6344 20244,6336 20220,6332 20196,6327 20172,6325 20148,6325 20091,6325 20045,6341 20012,6375 19979,6408 19963,6457 19963,6520 19963,6581 19975,6626 20000,6658 20024,6689 20065,6704 20121,6704 20152,6704 20183,6699 20213,6689 20244,6679 20272,6666 20297,6649 Z M 20297,6649 L 20297,6649 Z M 20719,6167 L 20600,6167 20600,6073 20719,6073 20719,6167 Z M 20719,6167 L 20719,6167 Z M 20712,6796 L 20607,6796 20607,6257 20712,6257 20712,6796 Z M 20712,6796 L 20712,6796 Z M 21364,6640 C 21364,6689 21340,6730 21293,6761 21247,6792 21183,6808 21101,6808 21056,6808 21013,6803 20975,6794 20937,6784 20905,6774 20879,6763 L 20879,6661 20884,6661 C 20917,6683 20954,6700 20994,6713 21034,6726 21073,6732 21109,6732 21155,6732 21191,6726 21217,6713 21243,6700 21255,6679 21255,6652 21255,6630 21249,6614 21235,6604 21220,6592 21193,6583 21154,6576 21139,6573 21119,6569 21096,6565 21072,6561 21050,6557 21031,6553 20976,6540 20938,6522 20915,6497 20892,6473 20881,6443 20881,6408 20881,6386 20886,6365 20897,6345 20907,6326 20923,6308 20945,6293 20966,6278 20992,6266 21024,6257 21056,6248 21092,6244 21132,6244 21169,6244 21207,6248 21245,6256 21283,6263 21315,6273 21340,6284 L 21340,6381 21334,6381 C 21307,6364 21275,6350 21237,6338 21199,6326 21162,6320 21125,6320 21087,6320 21055,6326 21029,6339 21002,6352 20989,6371 20989,6396 20989,6418 20997,6435 21013,6446 21028,6457 21054,6466 21088,6474 21108,6478 21129,6481 21153,6485 21177,6489 21196,6493 21212,6496 21261,6506 21298,6522 21324,6545 21351,6569 21364,6601 21364,6640 Z M 21364,6640 L 21364,6640 Z M 22419,6796 L 22314,6796 22314,6489 C 22314,6466 22313,6444 22311,6422 22309,6401 22303,6384 22296,6371 22287,6357 22275,6346 22259,6339 22243,6332 22220,6329 22190,6329 22161,6329 22132,6335 22102,6348 22073,6361 22044,6377 22014,6396 22016,6404 22017,6412 22017,6422 22018,6432 22019,6442 22019,6451 L 22019,6796 21914,6796 21914,6489 C 21914,6466 21913,6443 21910,6422 21908,6400 21903,6383 21895,6370 21886,6356 21874,6346 21858,6339 21842,6332 21819,6329 21789,6329 21761,6329 21732,6335 21703,6347 21675,6359 21646,6375 21618,6394 L 21618,6796 21513,6796 21513,6257 21618,6257 21618,6317 C 21650,6294 21683,6276 21715,6262 21748,6249 21782,6243 21819,6243 21861,6243 21897,6250 21927,6266 21956,6281 21978,6303 21992,6330 22035,6299 22073,6277 22108,6263 22143,6250 22180,6243 22220,6243 22288,6243 22338,6261 22371,6296 22403,6332 22419,6382 22419,6447 L 22419,6796 Z M 22419,6796 L 22419,6796 Z M 23150,6527 C 23150,6615 23124,6684 23072,6735 23020,6786 22951,6811 22864,6811 22776,6811 22707,6786 22655,6735 22603,6684 22577,6615 22577,6527 22577,6439 22603,6370 22655,6319 22707,6268 22776,6243 22864,6243 22951,6243 23020,6268 23072,6319 23124,6370 23150,6439 23150,6527 Z M 23150,6527 L 23150,6527 Z M 23042,6527 C 23042,6458 23026,6406 22995,6372 22963,6339 22920,6322 22864,6322 22807,6322 22763,6339 22732,6372 22701,6406 22685,6458 22685,6527 22685,6594 22701,6645 22732,6680 22764,6715 22808,6732 22864,6732 22919,6732 22963,6715 22994,6681 23026,6646 23042,6595 23042,6527 Z"/>
       </g>
      </g>
     </g>
    </g>
   </g>
  </g>
 </g>
</svg>